<?xml version="1.0" encoding="iso-8859-1"?>
<!-- Generator: Adobe Illustrator 19.0.0, SVG Export Plug-In . SVG Version: 6.00 Build 0)  -->
<svg version="1.1" id="Layer_1" xmlns="http://www.w3.org/2000/svg" xmlns:xlink="http://www.w3.org/1999/xlink" x="0px" y="0px"
	 viewBox="0 0 512 512" style="enable-background:new 0 0 512 512;" xml:space="preserve">
<g>
	<g>
		<path d="M511.708,188.996L480.151,58.294c-5.324-21.388-24.434-36.326-46.474-36.326H79.626
			c-21.821,0-40.885,14.754-46.378,35.952L0.316,188.901C0.107,189.734,0,190.589,0,191.448c0,24.572,12.44,46.288,31.347,59.197
			v191.777c0,26.252,21.357,47.61,47.608,47.61H433.05c26.249,0,47.604-21.358,47.604-47.61V250.599
			C499.563,237.684,512,215.991,512,191.448C512,190.622,511.902,189.798,511.708,188.996z M433.678,42.866
			c12.422,0,23.194,8.42,26.177,20.404l28.425,117.73H388.19L370.052,42.866H433.678z M266.449,42.866h82.525l18.138,138.133
			H266.449V42.866z M367.476,201.897c-4.877,22.982-25.494,40.29-50.124,40.29c-24.476,0-44.967-17.309-49.813-40.29H367.476z
			 M161.773,42.866h83.778v138.133h-100.9L161.773,42.866z M244.457,201.897c-4.861,22.982-25.413,40.29-49.962,40.29
			c-24.627,0-45.245-17.309-50.122-40.29H244.457z M53.498,63.089c3.086-11.908,13.83-20.223,26.129-20.223h61.089l-17.122,138.133
			H23.851L53.498,63.089z M21.994,201.897h99.297c-4.831,22.982-25.256,40.29-49.654,40.29
			C47.242,242.188,26.826,224.877,21.994,201.897z M459.755,442.423c0,14.729-11.98,26.712-26.707,26.712H78.955
			c-14.728-0.001-26.71-11.984-26.71-26.712V260.397c6.172,1.739,12.671,2.689,19.392,2.689c25.903,0,48.64-13.82,61.225-34.472
			c12.668,20.653,35.557,34.472,61.633,34.472c26.018,0,48.854-13.82,61.494-34.472c12.613,20.653,35.401,34.472,61.364,34.472
			c26.078,0,48.967-13.82,61.635-34.472c12.584,20.653,35.321,34.472,61.225,34.472c6.774,0,13.325-0.961,19.542-2.72V442.423z
			 M440.213,242.188c-24.397,0-44.823-17.309-49.654-40.29h99.444C485.159,224.878,464.681,242.188,440.213,242.188z"/>
	</g>
</g>
<g>
	<g>
		<path d="M427.016,356.602h-46.804c-5.771,0-10.449,4.678-10.449,10.449c0,5.771,4.678,10.449,10.449,10.449h35.045
			c-4.66,18.201-21.201,31.696-40.835,31.696c-23.239,0-42.145-18.906-42.145-42.145s18.906-42.145,42.145-42.145
			c10.008,0,19.708,3.568,27.314,10.046c4.394,3.742,10.988,3.215,14.73-1.179c3.743-4.393,3.215-10.988-1.179-14.73
			c-11.382-9.696-25.895-15.036-40.864-15.036c-34.762,0-63.043,28.281-63.043,63.043s28.281,63.043,63.043,63.043
			s63.043-28.281,63.043-63.043C437.465,361.28,432.787,356.602,427.016,356.602z"/>
	</g>
</g>
<g>
	<g>
		<path d="M234.893,421.734h-4.678c-5.771,0-10.449,4.678-10.449,10.449c0,5.771,4.678,10.449,10.449,10.449h4.678
			c5.771,0,10.449-4.678,10.449-10.449C245.342,426.412,240.664,421.734,234.893,421.734z"/>
	</g>
</g>
<g>
	<g>
		<path d="M196.412,421.734H94.92c-5.771,0-10.449,4.678-10.449,10.449c0,5.771,4.678,10.449,10.449,10.449h101.492
			c5.771,0,10.449-4.678,10.449-10.449C206.861,426.412,202.183,421.734,196.412,421.734z"/>
	</g>
</g>
<g>
</g>
<g>
</g>
<g>
</g>
<g>
</g>
<g>
</g>
<g>
</g>
<g>
</g>
<g>
</g>
<g>
</g>
<g>
</g>
<g>
</g>
<g>
</g>
<g>
</g>
<g>
</g>
<g>
</g>
</svg>
