<svg width="256" height="256" viewBox="0 0 256 256" fill="none" xmlns="http://www.w3.org/2000/svg">
<g clip-path="url(#clip0_528_67085)">
<path d="M281.6 -25.6H-25.6V281.6H281.6V-25.6Z" fill="white"/>
<path d="M281.6 -25.6H-25.6V281.6H281.6V-25.6Z" fill="white"/>
<path d="M281.6 -25.6H-25.6V281.6H281.6V-25.6Z" fill="white"/>
<path d="M281.6 -25.6H-25.6V281.6H281.6V-25.6Z" fill="white"/>
<path fill-rule="evenodd" clip-rule="evenodd" d="M124.776 56.9896L60.0573 19.4792C39.2239 7.40104 19.1562 8.04166 19.0729 40L18.9167 101.385L18.875 116.943L18.7187 178.328C18.6354 210.286 38.6927 211.026 59.5937 199.057L124.505 161.88C132.661 157.208 135.505 146.724 130.823 138.589C126.146 130.448 115.641 127.609 107.484 132.281L75.526 150.583C73.75 151.208 71.8385 151.547 69.8437 151.542C61.0937 151.521 53.9062 144.885 53.0208 136.391L53.0677 117.026L53.1094 101.474L53.1614 82.1094C54.0885 73.6198 61.3125 67.0208 70.0625 67.0469C72.0573 67.0521 73.9687 67.3958 75.7396 68.0313L107.604 86.5C115.734 91.2135 126.255 88.4323 130.974 80.3125C135.698 72.1979 132.906 61.7031 124.776 56.9896Z" fill="black"/>
<path fill-rule="evenodd" clip-rule="evenodd" d="M131.771 93.9219L196.682 56.7448C217.578 44.776 237.641 45.5156 237.557 77.4792L237.401 138.859L237.359 154.417L237.198 215.802C237.115 247.76 217.052 248.401 196.219 236.323L131.495 198.813C123.365 194.099 120.578 183.604 125.297 175.49C130.021 167.375 140.542 164.589 148.672 169.302L180.531 187.771C182.307 188.406 184.219 188.75 186.214 188.755C194.964 188.781 202.188 182.182 203.115 173.693L203.167 154.333L203.203 138.776L203.255 119.411C202.37 110.917 195.182 104.281 186.427 104.26C184.438 104.255 182.521 104.594 180.745 105.219L148.792 123.521C140.635 128.193 130.13 125.359 125.448 117.214C120.771 109.078 123.609 98.5938 131.771 93.9219Z" fill="#FFD761"/>
</g>
<defs>
<clipPath id="clip0_528_67085">
<rect width="256" height="256" fill="white"/>
</clipPath>
</defs>
</svg>
